<svg width="1352" height="668" viewBox="0 0 1352 668" fill="currentColor" xmlns="http://www.w3.org/2000/svg">
<path d="M123.214 0.75705C115.622 2.39066 108.175 7.19534 103.178 13.7297C100.92 16.6606 99.6227 19.111 97.7969 23.8676C96.3074 27.6633 95.6828 36.8883 96.5957 41.1645C97.2684 44.2875 99.4785 48.7559 101.833 51.7348C103.707 54.0411 110.241 60.095 112.115 61.152C117.16 63.9868 123.502 66.6293 125.472 66.6293C126.289 66.6293 127.442 66.9176 128.018 67.2059C128.835 67.6864 137.147 67.8786 162.948 68.1188L196.821 68.4071L200.281 69.6563C205.614 71.5782 208.257 73.1157 211.428 76.0465C216.617 80.8512 219.115 86.4247 220.124 95.5536C221.373 107.373 220.172 118.52 217.001 124.286C216.617 124.958 215.944 126.256 215.464 127.168C214.263 129.619 208.257 135.432 205.71 136.634C200.569 139.132 198.936 139.324 185.386 138.988C178.468 138.844 167.609 138.604 161.267 138.459C154.925 138.315 149.111 138.123 148.294 137.979C147.525 137.835 120.139 137.739 87.5148 137.643C31.4922 137.595 28.0328 137.643 25.5344 138.459C17.5105 141.054 14.4355 142.639 10.7359 146.099C9.00625 147.684 4.87421 152.825 4.87421 153.354C4.87421 153.546 4.48984 154.267 4.00937 154.94C2.95234 156.477 1.22265 161.09 0.549995 164.309C-0.555083 169.402 0.0695263 178.915 1.84726 183.623C2.56796 185.497 2.85625 186.074 4.97031 190.11C6.31562 192.608 13.2344 199.719 15.4445 200.824C16.3574 201.305 17.7988 202.073 18.5676 202.458C22.1711 204.428 23.5644 205.004 24.6215 205.004C25.2461 205.004 26.9758 205.341 28.4172 205.725C30.7234 206.35 44.3207 206.494 129.556 206.734C226.034 206.974 228.148 207.022 231.896 207.983C236.46 209.136 241.457 211.01 243.427 212.356C246.742 214.614 252.316 220.812 252.316 222.301C252.316 222.59 252.7 223.454 253.229 224.127C253.709 224.848 254.238 226.193 254.382 227.106C254.574 228.019 255.054 229.989 255.439 231.43C255.919 233.112 256.159 236.139 256.159 239.838C256.159 253.34 250.826 263.91 241.649 268.666C239.823 269.579 237.95 270.348 237.469 270.348C236.989 270.348 235.739 270.732 234.73 271.165C233.001 271.982 228.773 272.03 176.161 272.27C121.052 272.558 119.37 272.606 116.343 273.519C112.115 274.816 109.857 275.97 106.734 278.324C101.4 282.36 97.8449 287.261 95.827 293.507C94.6738 297.014 94.5297 298.215 94.5297 303.981C94.5297 309.362 94.7219 311.14 95.6348 314.311C97.941 322.239 102.505 328.293 109.616 333.001C111.875 334.491 113.989 335.692 114.325 335.692C114.613 335.692 115.718 336.124 116.679 336.653C117.688 337.181 119.082 337.614 119.754 337.614C120.475 337.614 121.964 337.998 123.118 338.431C125.087 339.247 130.229 339.295 196.581 339.584L267.931 339.824L270.814 340.881C272.399 341.506 274.561 342.418 275.618 342.995C279.222 344.869 283.882 349.145 285.228 351.74C285.516 352.268 285.996 353.181 286.285 353.709C286.573 354.238 287.246 355.872 287.822 357.313C289.072 360.58 289.216 367.451 288.111 370.141C287.726 371.054 287.39 372.207 287.39 372.64C287.39 373.361 286.957 374.37 285.42 377.012C282.345 382.393 277.252 386.141 270.189 388.159C266.634 389.168 265.721 389.216 242.946 389.264C222.527 389.312 219.163 389.456 217.722 390.129C216.809 390.513 215.512 391.042 214.839 391.234C212.917 391.763 209.266 394.79 208.161 396.759L207.104 398.585L207.296 460.47C207.488 530.186 207.2 525.333 211.236 533.405C214.839 540.66 219.307 544.407 228.532 547.867C230.791 548.732 233.145 548.78 270.862 548.924L310.837 549.068L311.99 547.675C312.807 546.666 313.575 544.407 314.729 539.603C316.939 530.234 320.927 517.213 323.041 512.504C323.569 511.303 324.146 509.91 324.386 509.381C324.866 508.18 327.221 502.943 327.797 501.79C328.758 499.964 329.335 498.763 329.719 498.09C329.959 497.706 330.536 496.601 331.016 495.688C337.791 482.715 347.4 469.743 358.307 458.98C364.505 452.83 370.751 447.161 371.28 447.161C371.472 447.161 372.481 446.44 373.586 445.527C375.556 443.941 378.246 442.116 384.396 438.128C386.126 437.023 390.258 434.716 393.573 433.083C410.87 424.386 427.975 420.062 449.308 419.005C455.986 418.669 472.851 419.87 476.935 420.975C478.28 421.311 480.634 421.792 482.22 421.936C483.805 422.128 485.968 422.561 487.025 422.897C488.082 423.233 490.628 424.002 492.742 424.579C502.015 427.125 521.33 435.966 527 440.242C527.816 440.866 528.633 441.395 528.777 441.395C528.922 441.395 529.979 442.068 531.084 442.836C532.237 443.653 534.255 445.047 535.552 445.959C540.02 448.986 552.272 459.845 556.164 464.217C561.834 470.559 564.14 473.346 566.302 476.469C567.359 477.959 569.089 480.505 570.194 482.043C573.413 486.655 577.112 492.853 577.112 493.526C577.112 493.91 577.305 494.343 577.593 494.487C577.833 494.631 578.746 496.216 579.563 497.994C580.38 499.772 581.293 501.646 581.581 502.174C581.821 502.703 582.254 503.472 582.446 503.856C582.638 504.24 583.263 505.778 583.839 507.219C584.416 508.661 585.184 510.486 585.569 511.303C587.779 516.156 592.487 534.125 593.497 541.717C594.025 545.945 594.169 546.233 595.803 547.579L597.532 549.02H793.564C948.179 549.02 989.835 548.876 990.748 548.395C992.43 547.579 994.111 543.975 994.159 541.284C994.159 540.035 994.592 537.681 995.12 536.047C995.649 534.414 996.081 532.444 996.081 531.675C996.081 530.906 996.514 529.177 997.042 527.783C997.571 526.39 998.003 524.804 998.003 524.276C998.003 523.747 998.291 522.738 998.676 522.018C999.06 521.345 999.589 519.711 999.829 518.414C1000.12 517.117 1000.69 515.435 1001.08 514.666C1001.51 513.85 1001.85 512.937 1001.85 512.648C1001.85 512.312 1002.28 511.111 1002.76 510.006C1003.24 508.853 1004.15 506.739 1004.73 505.297C1005.31 503.856 1006.17 501.79 1006.65 500.733C1007.08 499.676 1007.71 498.282 1008 497.61C1008.48 496.505 1009.77 494.15 1013.62 487.28C1016.12 482.763 1022.89 472.818 1025.68 469.502C1030.96 463.256 1039.56 454.752 1045.33 450.091C1048.45 447.545 1051.43 445.239 1051.91 444.998C1052.39 444.71 1055.08 442.932 1057.87 441.011C1060.7 439.137 1063.2 437.551 1063.49 437.551C1063.78 437.551 1064.36 437.263 1064.74 436.879C1065.99 435.773 1076.61 430.584 1082.09 428.374C1088.38 425.876 1098.42 422.849 1102.65 422.176C1104.43 421.888 1107.07 421.359 1108.51 421.023C1116.05 419.149 1135.56 418.477 1146.47 419.726C1160.11 421.263 1174 424.771 1183.94 429.191C1188.8 431.353 1199.7 436.975 1201.29 438.128C1202.3 438.848 1203.26 439.473 1203.4 439.473C1203.93 439.473 1211.14 444.518 1216.14 448.314C1221.33 452.302 1230.89 461.527 1235.21 466.62C1237.28 469.022 1241.12 474.163 1244.82 479.352C1245.93 480.89 1249.77 487.088 1249.77 487.328C1249.77 487.376 1250.25 488.193 1250.87 489.057C1252.32 491.22 1258.42 503.664 1260.24 508.18C1262.89 514.666 1265.48 523.171 1267.55 531.723C1271.05 546.57 1270.96 546.233 1272.54 547.675L1273.98 549.02H1301.18C1327.65 549.02 1328.42 548.972 1331.45 548.011C1335.58 546.618 1337.26 545.753 1340.67 543.302C1345 540.179 1348.51 534.366 1350.33 527.207C1351.29 523.363 1351.34 522.738 1351.34 431.305C1351.39 330.166 1351.58 338.815 1348.65 328.725C1345.53 318.107 1339.52 309.506 1328.52 300.041C1323.95 296.101 1320.69 294.179 1310.31 289.423C1301.76 285.483 1300.12 284.762 1299.93 284.762C1299.79 284.762 1298.06 283.993 1295.99 283.032C1293.97 282.072 1291.43 280.918 1290.37 280.438C1289.31 279.957 1286.76 278.804 1284.7 277.843C1282.63 276.882 1280.71 276.114 1280.37 276.114C1280.04 276.114 1279.27 275.681 1278.6 275.153C1277.92 274.624 1277.2 274.192 1276.92 274.192C1276.68 274.192 1275.57 273.759 1274.51 273.279C1272.69 272.414 1270.91 271.597 1264.42 268.666C1262.84 267.946 1260.29 266.745 1258.75 265.976C1257.22 265.207 1255.68 264.582 1255.25 264.582C1254.86 264.582 1253.71 264.15 1252.75 263.622C1251.79 263.093 1249.91 262.228 1248.57 261.7C1247.27 261.123 1245.35 260.258 1244.34 259.778C1243.28 259.249 1242.18 258.817 1241.84 258.817C1240.98 258.817 1239.44 256.655 1234.83 248.967C1232.62 245.268 1230.6 241.904 1230.31 241.472C1230.07 241.039 1229.2 239.55 1228.44 238.109C1227.67 236.667 1225.79 233.496 1224.21 230.998C1222.67 228.547 1220.84 225.472 1220.22 224.223C1219.6 222.974 1217.77 219.803 1216.14 217.208C1212.39 211.154 1212.63 211.491 1210.61 208.127C1209.7 206.542 1208.26 204.139 1207.49 202.842C1206.72 201.497 1205.23 199.095 1204.27 197.413C1203.26 195.731 1202.25 194.002 1201.96 193.569C1201.72 193.089 1200.42 191.023 1199.13 188.909C1196.82 185.161 1195.38 182.663 1194.32 180.741C1194.03 180.212 1193.31 179.107 1192.74 178.242C1192.11 177.425 1191.63 176.609 1191.63 176.416C1191.63 176.176 1190.48 174.254 1187.93 170.122C1187.36 169.257 1184.28 163.972 1182.21 160.369C1181.69 159.408 1180.73 157.774 1180.1 156.717C1179.52 155.66 1178.47 153.834 1177.79 152.633C1177.12 151.432 1176.21 149.895 1175.73 149.174C1175.2 148.501 1174.82 147.829 1174.82 147.684C1174.82 147.588 1173.61 145.57 1172.17 143.216C1170.73 140.862 1169.39 138.604 1169.24 138.219C1169.1 137.835 1168.81 137.162 1168.57 136.778C1168.33 136.393 1167.22 134.52 1166.17 132.694C1165.06 130.82 1163.81 128.754 1163.38 128.033C1162.47 126.64 1158.82 120.778 1157.86 119.241C1154.2 113.283 1141.18 99.9739 1137 97.8598C1136.23 97.4754 1135.13 96.8028 1134.5 96.3223C1133.88 95.8419 1133.01 95.4575 1132.53 95.4575C1132.05 95.4575 1131.14 95.0251 1130.47 94.4965C1129.8 93.968 1128.93 93.5356 1128.5 93.5356C1128.07 93.5356 1126.91 93.1032 1125.95 92.5746C1124.94 92.0461 1123.69 91.6137 1123.17 91.6137C1122.64 91.5657 1121.34 91.1813 1120.28 90.6528C1119.23 90.1243 1117.74 89.6918 1116.92 89.6918C1116.15 89.6918 1114.18 89.3555 1112.59 89.0192C1111.01 88.6348 1107.89 88.2985 1105.63 88.2985C1103.37 88.2985 1066.18 88.3465 1022.99 88.4426C940.587 88.5868 943.422 88.4907 938.954 90.6047C936.647 91.6618 933.764 94.7368 932.323 97.6196C930.449 101.223 929.729 106.172 929.777 114.916C929.777 119.145 929.921 185.305 930.113 261.988C930.353 391.426 930.353 401.516 929.584 403.726C929.152 405.072 928.191 406.753 927.422 407.474C926.173 408.675 925.548 408.867 921.032 409.204C912.576 409.876 893.165 409.924 892.012 409.3C891.435 409.011 890.378 408.098 889.706 407.234L888.456 405.744V221.581C888.456 38.4739 888.456 37.3207 887.495 34.9184C886.967 33.5731 886.534 32.0356 886.534 31.5551C886.534 31.0266 886.102 29.7774 885.573 28.8164C885.045 27.8075 884.613 26.6543 884.613 26.27C884.613 25.8376 884.42 25.3091 884.18 25.0207C883.94 24.7805 883.171 23.4832 882.45 22.186C876.012 10.4145 862.751 2.63089 845.935 0.75705C841.803 0.276581 763.871 0.132477 483.902 0.0363464C144.739 -0.0597229 126.961 -0.0116882 123.214 0.75705ZM597.292 104.01C601.376 105.115 604.019 106.412 606.805 108.526C609.496 110.592 615.55 117.511 615.55 118.52C615.55 118.856 615.982 119.913 616.463 120.874C618.241 124.334 619.154 133.895 617.952 137.018C617.712 137.691 617.472 138.7 617.472 139.276C617.472 140.141 615.598 144.321 613.868 147.3C611.706 151.096 602.625 158.111 598.589 159.12C597.917 159.312 596.908 159.936 596.379 160.513L595.322 161.618L597.581 165.894C601.136 172.717 605.941 182.326 605.941 182.711C605.941 182.903 606.421 184.056 606.95 185.257C607.526 186.458 608.391 188.332 608.872 189.389C609.304 190.446 610.265 192.512 610.938 193.954C614.061 200.728 617.472 208.56 617.472 209.04C617.472 209.329 617.904 210.097 618.433 210.77C618.961 211.443 619.394 212.211 619.394 212.548C619.394 212.884 620.163 214.806 621.123 216.872C622.084 218.938 623.286 221.581 623.814 222.782C629.484 235.466 632.222 239.454 636.787 241.808C640.438 243.682 646.06 243.202 650.624 240.607C651.393 240.175 656.918 237.196 659.993 235.562C661.05 234.986 664.077 233.256 666.72 231.766C669.362 230.229 671.861 228.788 672.245 228.595C673.735 227.827 675.08 227.058 681.374 223.406C684.93 221.34 688.053 219.563 688.341 219.466C688.581 219.37 689.59 218.794 690.503 218.217C692.473 216.968 697.566 214.181 702.275 211.731C709.001 208.175 711.163 206.782 711.163 205.917C711.163 205.725 710.539 204.572 709.77 203.467C709.001 202.314 708.184 200.728 707.992 199.959C707.8 199.143 707.32 198.038 706.983 197.461C706.599 196.884 706.07 194.242 705.782 191.551C704.725 181.798 706.935 175.552 713.902 168.585C716.112 166.423 718.418 164.405 718.995 164.164C719.571 163.876 720.388 163.492 720.773 163.252C723.031 161.906 726.154 160.801 727.547 160.801C728.46 160.801 729.95 160.609 730.862 160.321C733.361 159.6 740.616 160.657 743.835 162.243C749.12 164.837 749.889 165.318 752.964 168.441C756.135 171.708 758.922 176.176 760.075 180.02C760.459 181.221 760.844 184.248 760.988 186.843C761.18 190.782 761.036 191.936 760.123 194.77C758.874 198.47 756.279 203.131 754.165 205.533C752.532 207.359 748.496 210.77 747.967 210.77C747.727 210.77 747.006 211.154 746.334 211.635C744.748 212.692 740.952 213.989 738.07 214.373C735.379 214.806 734.466 215.575 733.457 218.409C733.025 219.611 732.304 221.677 731.823 223.022C731.343 224.319 729.95 228.643 728.7 232.631C727.451 236.571 726.154 240.559 725.77 241.424C725.385 242.289 725.097 243.49 725.097 244.066C725.097 244.643 724.664 246.084 724.136 247.238C723.607 248.391 723.175 249.88 723.175 250.601C723.127 251.273 722.743 252.715 722.214 253.772C721.686 254.829 721.301 256.27 721.253 256.943C721.253 257.664 720.821 259.153 720.292 260.306C719.764 261.459 719.331 262.901 719.331 263.525C719.331 264.15 718.899 265.543 718.37 266.6C717.842 267.706 717.409 269.147 717.409 269.82C717.361 270.492 716.977 271.934 716.448 272.991C715.92 274.048 715.536 275.393 715.487 275.922C715.487 276.498 715.055 277.891 714.527 279.045C713.998 280.198 713.566 281.735 713.566 282.408C713.566 283.129 713.229 284.33 712.845 285.05C712.461 285.819 712.028 287.213 711.836 288.125C711.692 289.038 711.307 290.576 710.923 291.489C710.298 293.17 708.329 299.609 707.031 304.221C706.695 305.518 705.926 308.017 705.398 309.747C702.611 318.923 697.71 336.605 697.71 337.47C697.71 338.238 694.731 342.899 693.53 344.004C692.281 345.061 687.764 346.406 686.467 346.07C685.891 345.926 682.191 345.541 678.155 345.301C674.119 345.013 669.459 344.532 667.825 344.148C666.143 343.764 662.252 343.331 659.177 343.187C656.102 343.043 652.979 342.659 652.21 342.37C651.489 342.082 648.174 341.65 644.859 341.409C641.543 341.121 638.084 340.737 637.171 340.448C636.258 340.208 633.423 339.872 630.925 339.728C628.427 339.584 625.111 339.151 623.574 338.767C622.084 338.382 617.856 337.854 614.205 337.614C610.601 337.373 606.854 336.941 605.941 336.653C605.028 336.365 601.664 335.932 598.493 335.692C595.322 335.452 590.998 334.923 588.884 334.539C586.77 334.154 583.743 333.818 582.157 333.818C580.572 333.77 577.641 333.482 575.671 333.097C573.701 332.713 570.242 332.281 567.984 332.088C565.725 331.944 562.891 331.608 561.641 331.368C560.44 331.127 556.212 330.599 552.272 330.166C548.38 329.782 542.567 329.109 539.396 328.725C536.225 328.341 529.546 327.572 524.501 327.043C519.504 326.515 513.643 325.842 511.529 325.602C501.246 324.305 480.346 321.854 462.28 319.836C457.668 319.308 450.221 318.443 445.704 317.915C441.236 317.338 435.47 316.713 432.924 316.473C425.332 315.752 420.624 313.494 419.567 310.035C419.038 308.257 418.654 297.062 418.318 271.549C418.173 261.219 417.837 241.664 417.549 228.067C417.261 214.47 417.116 198.662 417.213 192.993L417.357 182.663L413.513 180.26C408.756 177.281 403.375 171.9 401.693 168.441C398.426 161.762 398.378 161.522 398.378 156.093C398.426 152.681 398.666 150.327 399.147 149.03C399.579 147.973 400.012 146.579 400.156 145.907C400.732 143.456 405.585 136.826 408.612 134.375C410.246 133.03 411.783 131.973 412.072 131.973C412.312 131.973 413.08 131.541 413.753 131.012C414.426 130.484 415.387 130.051 415.915 130.051C416.444 130.051 417.741 129.619 418.798 129.09C421.248 127.937 428.888 127.745 431.194 128.802C432.059 129.186 433.645 129.763 434.702 130.003C435.807 130.291 436.96 130.868 437.296 131.252C437.632 131.637 438.305 131.973 438.834 131.973C439.362 131.973 441.524 133.751 443.927 136.153C450.509 142.784 452.575 148.021 452.047 156.813C451.614 164.549 449.404 169.642 444.071 175.263C442.197 177.233 440.707 179.059 440.659 179.347C440.659 179.684 441.812 180.789 443.206 181.846C444.551 182.903 446.137 184.152 446.665 184.632C447.194 185.161 448.107 185.882 448.635 186.266C449.932 187.179 456.659 192.608 456.995 192.993C457.139 193.137 459.302 194.963 461.8 196.981C471.409 204.716 476.022 208.512 479.577 211.635C481.595 213.413 484.43 215.815 485.871 217.016C488.274 219.034 491.109 221.532 493.991 224.175C494.664 224.8 496.49 225.905 498.075 226.673C501.775 228.451 504.754 228.499 509.126 226.866C513.258 225.28 515.564 223.695 519.456 219.659C523.54 215.479 522.531 216.536 530.987 206.926C535.071 202.314 538.627 198.278 538.915 197.99C539.732 197.125 545.546 190.59 549.293 186.266C561.978 171.756 565.677 167.672 571.731 161.378C572.548 160.465 573.269 159.36 573.269 158.879C573.269 158.447 571.539 156.333 569.377 154.267C557.557 142.784 556.645 141.15 557.029 131.781C557.269 125.295 558.374 122.46 563.131 115.925C568.416 108.67 575.191 104.058 581.773 103.241C586.097 102.664 594.025 103.049 597.292 104.01ZM1096.84 154.363C1103.32 156.621 1111.54 161.858 1116.68 166.999C1119.47 169.834 1121.34 172.429 1125.09 178.723C1127.73 183.143 1130.28 187.371 1130.71 188.092C1131.19 188.813 1131.81 189.918 1132.15 190.59C1132.49 191.263 1133.5 192.993 1134.46 194.434C1135.37 195.875 1136.33 197.461 1136.62 197.893C1136.86 198.326 1137.96 200.104 1139.02 201.881C1140.08 203.611 1141.28 205.629 1141.66 206.35C1142.05 207.07 1142.86 208.272 1143.39 209.088C1143.97 209.857 1144.98 211.491 1145.65 212.692C1146.32 213.893 1147.72 216.247 1148.82 217.977C1149.93 219.707 1150.98 221.532 1151.27 222.061C1151.9 223.358 1156.8 231.526 1162.61 240.943C1165.4 245.46 1165.69 245.892 1168.76 250.649L1171.55 255.021L1171.36 258.192C1171.16 261.171 1171.07 261.459 1169.24 262.949L1167.37 264.582L1097.46 264.679C1059.02 264.727 1026.93 264.727 1026.21 264.679C1023.47 264.486 1017.85 260.018 1016.79 257.231C1016.31 255.982 1016.21 237.965 1016.26 171.372V160.032L1017.51 158.159C1019.1 155.756 1021.21 154.027 1023.13 153.594C1024 153.354 1040.09 153.21 1058.93 153.162L1093.23 153.114L1096.84 154.363Z" fill="currentColor"/>
<path d="M440.9 458.644C431.002 459.989 416.492 464.553 408.756 468.83C405.201 470.848 404.144 471.472 402.318 472.673C401.165 473.442 400.108 474.067 399.964 474.067C399.771 474.067 398.666 474.884 397.465 475.893C396.264 476.902 394.919 477.862 394.534 478.007C393.333 478.439 382.955 488.096 379.832 491.652C376.901 495.015 370.991 502.703 370.991 503.183C370.991 503.327 370.271 504.432 369.454 505.682C367.628 508.276 367.436 508.661 364.169 515.147C362.871 517.789 361.43 520.576 361.046 521.345C360.613 522.114 360.133 523.411 359.893 524.228C359.364 526.342 357.586 531.339 357.106 532.203C356.866 532.636 356.529 533.933 356.337 535.086C356.193 536.287 355.712 538.113 355.376 539.17C354.992 540.227 354.463 543.446 354.175 546.329C353.887 549.26 353.55 551.807 353.406 551.999C352.83 552.912 353.214 569.968 353.935 575.302C354.896 582.412 356.385 589.956 357.298 592.118C357.682 593.079 358.019 594.28 358.019 594.857C358.067 595.385 358.451 596.73 358.98 597.787C359.508 598.844 359.893 599.998 359.941 600.286C359.941 601.295 363.929 609.799 365.946 613.162C366.571 614.219 367.34 615.517 367.58 616.045C370.223 621.234 377.045 630.075 383.676 636.898C388.48 641.798 397.321 649.005 401.021 651.071C401.837 651.504 403.135 652.273 403.904 652.801C406.162 654.291 412.888 657.798 414.474 658.327C415.291 658.615 416.684 659.191 417.597 659.624C419.086 660.344 420.864 661.017 426.245 662.891C427.158 663.227 428.888 663.66 430.089 663.948C431.29 664.188 433.452 664.717 434.942 665.053C445.464 667.696 465.404 667.455 476.214 664.573C485.199 662.17 488.85 661.017 492.31 659.528C494.808 658.471 504.033 653.906 505.282 653.137C517.198 645.786 527.864 636.321 535.071 626.856C537.041 624.213 538.675 622.003 538.675 621.859C538.675 621.715 539.396 620.562 540.309 619.312C542.423 616.334 550.206 600.766 550.206 599.517C550.206 599.181 550.591 598.268 551.023 597.403C551.455 596.538 551.984 595.097 552.176 594.184C552.416 593.271 553.137 590.436 553.81 587.938C558.855 569.248 557.75 543.879 551.119 526.678C550.639 525.333 550.206 524.084 550.206 523.891C550.206 523.507 548.14 518.798 547.275 517.213C547.035 516.732 546.074 514.907 545.113 513.129C542.423 508.18 542.375 508.036 541.221 506.402C540.597 505.586 540.116 504.769 540.116 504.625C540.116 503.904 532.477 494.15 529.354 490.931C516.814 477.959 510.568 473.538 493.991 465.755C489.187 463.496 481.355 461.238 471.169 459.172C467.758 458.5 445.176 458.115 440.9 458.644ZM467.325 523.219C478.184 527.014 486.448 534.029 490.58 543.014C491.205 544.311 491.877 545.801 492.118 546.233C492.31 546.666 493.079 549.26 493.799 551.999C495 556.659 495.048 557.38 494.808 564.155C494.568 570.209 494.328 571.89 493.271 574.725C486.928 592.118 475.445 601.487 458.437 603.121C450.941 603.841 439.362 601.055 433.356 597.067C425.861 592.07 420.624 585.103 417.549 575.926C416.204 571.89 416.011 570.593 415.819 564.395C415.579 558.053 415.675 556.948 416.828 552.239C420.672 536.287 432.539 524.564 447.386 522.066C448.587 521.873 452.815 521.777 456.755 521.873C462.905 521.969 464.443 522.21 467.325 523.219Z" fill="currentColor"/>
<path d="M1122.44 458.5C1114.66 459.364 1102.79 462.151 1097.22 464.457C1096.45 464.794 1095.01 465.37 1094.1 465.755C1091.98 466.668 1084.44 470.415 1081.6 472.049C1068.25 479.688 1054.03 493.766 1045.86 507.363C1044.18 510.198 1041.2 515.627 1040.72 516.828C1040.43 517.501 1039.8 518.846 1039.28 519.807C1038.8 520.768 1038.36 521.873 1038.36 522.21C1038.36 522.546 1038.03 523.459 1037.64 524.228C1037.21 524.996 1036.68 526.438 1036.44 527.351C1036.2 528.312 1035.72 530.041 1035.29 531.243C1033.75 535.903 1032.89 539.266 1032.55 542.053C1032.4 543.639 1031.88 546.762 1031.4 549.02C1030.68 552.479 1030.63 554.882 1030.82 564.395C1031.01 572.323 1031.3 576.551 1031.83 578.569C1032.21 580.154 1032.55 582.268 1032.6 583.229C1032.6 584.19 1033.03 585.968 1033.56 587.217C1034.09 588.466 1034.52 590.052 1034.52 590.725C1034.52 591.445 1034.95 592.983 1035.48 594.136C1036.01 595.289 1036.44 596.634 1036.44 597.163C1036.44 597.643 1036.87 598.893 1037.35 599.853C1037.88 600.814 1038.7 602.592 1039.23 603.793C1040.67 607.157 1042.64 611.048 1043.94 613.162C1044.56 614.219 1045.43 615.757 1045.86 616.622C1046.29 617.487 1046.91 618.4 1047.3 618.736C1047.68 619.024 1047.97 619.505 1047.97 619.745C1047.97 620.177 1050.71 624.453 1051.34 624.934C1051.48 625.078 1052.15 625.943 1052.78 626.856C1057.53 633.727 1069.59 644.681 1080.07 651.552C1084.44 654.435 1096.6 660.441 1098.13 660.489C1098.42 660.537 1099.53 660.921 1100.58 661.45C1101.64 661.978 1102.99 662.362 1103.56 662.411C1104.19 662.411 1105.48 662.699 1106.45 663.083C1112.88 665.486 1130.32 667.696 1137.2 667.023C1149.06 665.87 1151.13 665.486 1163.76 661.834C1164.68 661.546 1165.64 661.161 1165.88 660.921C1166.17 660.681 1166.65 660.489 1167.03 660.489C1167.75 660.489 1170.92 659.095 1177.22 656.02C1181.64 653.858 1188.03 649.678 1193.94 645.162C1198.17 641.943 1208.26 631.901 1210.18 629.018C1210.85 627.961 1212.24 626.135 1213.21 624.934C1214.17 623.733 1215.7 621.571 1216.62 620.129C1218.11 617.631 1218.54 616.91 1220.99 612.538C1225.17 605.235 1229.2 593.319 1231.61 581.211C1232.62 576.214 1232.71 574.389 1232.71 561.752C1232.71 547.242 1232.28 543.446 1229.73 534.125C1227.72 526.63 1223.34 515.291 1221.33 512.408C1220.84 511.736 1220.46 511.015 1220.46 510.871C1220.46 510.342 1216.81 504.336 1214.26 500.781C1202.49 484.301 1187.21 472.097 1169.34 464.842C1163.72 462.584 1159.83 461.43 1151.99 459.797C1147 458.74 1144.74 458.596 1135.18 458.452C1129.12 458.355 1123.36 458.403 1122.44 458.5ZM1144.31 523.459C1150.5 525.765 1151.75 526.39 1155.36 529.128C1162.66 534.606 1166.98 541.044 1170.01 550.942C1170.97 554.065 1171.12 555.602 1171.12 562.473C1171.16 569.536 1171.02 570.785 1170.01 573.764C1167.9 580.106 1166.55 582.893 1163.48 587.217C1157.95 594.953 1151.61 599.373 1142.62 601.919C1136.86 603.505 1126.29 603.553 1121.15 601.968C1116.97 600.67 1112.11 598.124 1108.51 595.385C1104.76 592.502 1099.24 586.112 1097.56 582.653C1097.27 581.98 1096.79 581.115 1096.55 580.731C1095.87 579.578 1095.01 576.935 1093.76 572.323C1092.75 568.719 1092.56 566.941 1092.56 561.464C1092.56 557.332 1092.75 554.545 1093.14 553.873C1093.42 553.296 1093.86 551.807 1094.1 550.557C1095.63 541.621 1104.04 531.05 1113.8 525.813C1119.85 522.546 1124.75 521.633 1134.22 521.873C1139.65 522.066 1140.94 522.258 1144.31 523.459Z" fill="currentColor"/>
</svg>
